<mxfile host="65bd71144e">
    <diagram id="BYtbt0mNlL5-F9OmKNQ6" name="ページ1">
        <mxGraphModel dx="2364" dy="1549" grid="1" gridSize="10" guides="1" tooltips="1" connect="1" arrows="1" fold="1" page="1" pageScale="1" pageWidth="850" pageHeight="1100" background="none" math="0" shadow="0">
            <root>
                <mxCell id="0"/>
                <mxCell id="1" parent="0"/>
                <mxCell id="4" value="" style="group" parent="1" vertex="1" connectable="0">
                    <mxGeometry x="-1150" y="-330" width="1290" height="500" as="geometry"/>
                </mxCell>
                <mxCell id="2" value="&lt;font style=&quot;font-size: 24px;&quot;&gt;boundary&lt;/font&gt;" style="rounded=0;whiteSpace=wrap;html=1;" parent="4" vertex="1">
                    <mxGeometry width="262.9142857142857" height="125" as="geometry"/>
                </mxCell>
                <mxCell id="3" value="" style="rounded=0;whiteSpace=wrap;html=1;" parent="4" vertex="1">
                    <mxGeometry y="125" width="1289.9999999999998" height="375" as="geometry"/>
                </mxCell>
                <mxCell id="30" value="&amp;lt;&amp;lt;boundary&amp;gt;&amp;gt;&lt;br&gt;&lt;b&gt;MainPage１&lt;/b&gt;" style="swimlane;fontStyle=0;align=center;verticalAlign=top;childLayout=stackLayout;horizontal=1;startSize=40;horizontalStack=0;resizeParent=1;resizeParentMax=0;resizeLast=0;collapsible=0;marginBottom=0;html=1;" parent="4" vertex="1">
                    <mxGeometry x="20.476190476190474" y="150" width="239.57142857142856" height="80" as="geometry"/>
                </mxCell>
                <mxCell id="31" value="＋Button（ユーザ情報の登録指示:str）:void&lt;br&gt;+Button（ログイン指示:str）:void" style="text;html=1;align=center;verticalAlign=middle;resizable=0;points=[];autosize=1;strokeColor=none;fillColor=none;" parent="30" vertex="1">
                    <mxGeometry y="40" width="239.57142857142856" height="40" as="geometry"/>
                </mxCell>
                <mxCell id="18" value="&amp;lt;&amp;lt;boundary&amp;gt;&amp;gt;&lt;br&gt;UserRegistrationPge" style="swimlane;fontStyle=0;align=center;verticalAlign=top;childLayout=stackLayout;horizontal=1;startSize=40;horizontalStack=0;resizeParent=1;resizeParentMax=0;resizeLast=0;collapsible=0;marginBottom=0;html=1;" parent="4" vertex="1">
                    <mxGeometry x="20.476190476190474" y="270" width="266.19047619047615" height="100" as="geometry"/>
                </mxCell>
                <mxCell id="19" value="+Entry（name:str,password:str）:void&lt;br&gt;+Button(name:str,password:str):void" style="text;html=1;strokeColor=none;fillColor=none;align=left;verticalAlign=middle;spacingLeft=4;spacingRight=4;overflow=hidden;rotatable=0;points=[[0,0.5],[1,0.5]];portConstraint=eastwest;" parent="18" vertex="1">
                    <mxGeometry y="40" width="266.19047619047615" height="60" as="geometry"/>
                </mxCell>
                <mxCell id="36" value="&amp;lt;&amp;lt;boundary&amp;gt;&amp;gt;&lt;br&gt;&lt;b&gt;UserInformationConfirmationPage&lt;/b&gt;" style="swimlane;fontStyle=0;align=center;verticalAlign=top;childLayout=stackLayout;horizontal=1;startSize=40;horizontalStack=0;resizeParent=1;resizeParentMax=0;resizeLast=0;collapsible=0;marginBottom=0;html=1;" parent="4" vertex="1">
                    <mxGeometry x="327.6190476190476" y="150" width="323" height="80" as="geometry"/>
                </mxCell>
                <mxCell id="38" value="+Message（&lt;span style=&quot;text-align: left;&quot;&gt;name:str,money:int=10000,password:str)void&lt;br&gt;&lt;/span&gt;&lt;span style=&quot;text-align: left;&quot;&gt;+Button(name:str,money;:int=10000,password:str)void&lt;br&gt;&lt;/span&gt;" style="text;html=1;align=center;verticalAlign=middle;resizable=0;points=[];autosize=1;strokeColor=none;fillColor=none;" parent="36" vertex="1">
                    <mxGeometry y="40" width="323" height="40" as="geometry"/>
                </mxCell>
                <mxCell id="28" value="&amp;lt;&amp;lt;boundary&amp;gt;&amp;gt;&lt;br&gt;&lt;b&gt;LoginPage&lt;br&gt;&lt;br&gt;&lt;br&gt;&lt;/b&gt;" style="swimlane;fontStyle=0;align=center;verticalAlign=top;childLayout=stackLayout;horizontal=1;startSize=40;horizontalStack=0;resizeParent=1;resizeParentMax=0;resizeLast=0;collapsible=0;marginBottom=0;html=1;" parent="4" vertex="1">
                    <mxGeometry x="327.6190476190476" y="277.5" width="204.76190476190473" height="70" as="geometry"/>
                </mxCell>
                <mxCell id="29" value="+Entry（&lt;span style=&quot;text-align: left;&quot;&gt;name:str,password:str)void&lt;/span&gt;" style="text;html=1;align=center;verticalAlign=middle;resizable=0;points=[];autosize=1;strokeColor=none;fillColor=none;" parent="28" vertex="1">
                    <mxGeometry y="40" width="204.76190476190473" height="30" as="geometry"/>
                </mxCell>
                <mxCell id="32" value="&amp;lt;&amp;lt;boundary&amp;gt;&amp;gt;&lt;br&gt;&lt;b&gt;MainPage2&lt;br&gt;&lt;br&gt;&lt;/b&gt;" style="swimlane;fontStyle=0;align=center;verticalAlign=top;childLayout=stackLayout;horizontal=1;startSize=40;horizontalStack=0;resizeParent=1;resizeParentMax=0;resizeLast=0;collapsible=0;marginBottom=0;html=1;" parent="4" vertex="1">
                    <mxGeometry x="669.9966666666667" y="150" width="220.1190476190476" height="100" as="geometry"/>
                </mxCell>
                <mxCell id="33" value="&lt;br&gt;＋Button（賭け金入力の指示:str）:void&lt;br&gt;+Button(ゲーム開始の指示:str）:void" style="text;html=1;align=center;verticalAlign=middle;resizable=0;points=[];autosize=1;strokeColor=none;fillColor=none;" parent="32" vertex="1">
                    <mxGeometry y="40" width="220.1190476190476" height="60" as="geometry"/>
                </mxCell>
                <mxCell id="20" value="&amp;lt;&amp;lt;boundary&amp;gt;&amp;gt;&lt;br&gt;&lt;b&gt;BetInputPage&lt;/b&gt;" style="swimlane;fontStyle=0;align=center;verticalAlign=top;childLayout=stackLayout;horizontal=1;startSize=48;horizontalStack=0;resizeParent=1;resizeParentMax=0;resizeLast=0;collapsible=0;marginBottom=0;html=1;" parent="4" vertex="1">
                    <mxGeometry x="549.9966666666667" y="282.5" width="143.33333333333334" height="78" as="geometry"/>
                </mxCell>
                <mxCell id="21" value="+Entry（bet&lt;span style=&quot;text-align: left;&quot;&gt;:int)void&lt;/span&gt;" style="text;html=1;align=center;verticalAlign=middle;resizable=0;points=[];autosize=1;strokeColor=none;fillColor=none;" parent="20" vertex="1">
                    <mxGeometry y="48" width="143.33333333333334" height="30" as="geometry"/>
                </mxCell>
                <mxCell id="160" value="「メイン画面１」クラス" style="shape=note;whiteSpace=wrap;html=1;backgroundOutline=1;darkOpacity=0.05;" parent="4" vertex="1">
                    <mxGeometry x="276.4285714285714" y="20" width="204.76190476190473" height="59" as="geometry"/>
                </mxCell>
                <mxCell id="163" value="「ユーザ情報確認画面」クラス" style="shape=note;whiteSpace=wrap;html=1;backgroundOutline=1;darkOpacity=0.05;" parent="4" vertex="1">
                    <mxGeometry x="501.6666666666667" y="20" width="204.76190476190473" height="59" as="geometry"/>
                </mxCell>
                <mxCell id="164" value="「メイン画面２」クラス" style="shape=note;whiteSpace=wrap;html=1;backgroundOutline=1;darkOpacity=0.05;" parent="4" vertex="1">
                    <mxGeometry x="747.3809523809523" y="20" width="204.76190476190473" height="59" as="geometry"/>
                </mxCell>
                <mxCell id="169" value="" style="endArrow=none;dashed=1;html=1;exitX=0.5;exitY=0;exitDx=0;exitDy=0;" parent="4" source="32" target="164" edge="1">
                    <mxGeometry width="50" height="50" relative="1" as="geometry">
                        <mxPoint x="812.4952380952378" y="530.826" as="sourcePoint"/>
                        <mxPoint x="808.8095238095233" y="365" as="targetPoint"/>
                    </mxGeometry>
                </mxCell>
                <mxCell id="170" value="" style="endArrow=none;dashed=1;html=1;entryX=0.445;entryY=0.972;entryDx=0;entryDy=0;entryPerimeter=0;" parent="4" source="36" target="163" edge="1">
                    <mxGeometry width="50" height="50" relative="1" as="geometry">
                        <mxPoint x="836.9642857142857" y="160" as="sourcePoint"/>
                        <mxPoint x="853.2382729211093" y="88.99999999999977" as="targetPoint"/>
                    </mxGeometry>
                </mxCell>
                <mxCell id="171" value="" style="endArrow=none;dashed=1;html=1;entryX=0.5;entryY=1;entryDx=0;entryDy=0;entryPerimeter=0;exitX=0.824;exitY=0.008;exitDx=0;exitDy=0;exitPerimeter=0;" parent="4" source="30" target="160" edge="1">
                    <mxGeometry width="50" height="50" relative="1" as="geometry">
                        <mxPoint x="533.6944589574637" y="160" as="sourcePoint"/>
                        <mxPoint x="603.0238095238095" y="87.34799999999996" as="targetPoint"/>
                    </mxGeometry>
                </mxCell>
                <mxCell id="34" value="&amp;lt;&amp;lt;boundary&amp;gt;&amp;gt;&lt;br&gt;&lt;b&gt;BetConfirmationPage&lt;/b&gt;" style="swimlane;fontStyle=0;align=center;verticalAlign=top;childLayout=stackLayout;horizontal=1;startSize=40;horizontalStack=0;resizeParent=1;resizeParentMax=0;resizeLast=0;collapsible=0;marginBottom=0;html=1;" parent="4" vertex="1">
                    <mxGeometry x="730.0004761904761" y="277.5" width="307.14285714285717" height="80" as="geometry"/>
                </mxCell>
                <mxCell id="35" value="+Message（bet&lt;span style=&quot;&quot;&gt;:int):void&lt;br&gt;&lt;/span&gt;&lt;span style=&quot;&quot;&gt;+Button(bet;int):void&lt;/span&gt;" style="text;html=1;align=left;verticalAlign=middle;resizable=0;points=[];autosize=1;strokeColor=none;fillColor=none;" parent="34" vertex="1">
                    <mxGeometry y="40" width="307.14285714285717" height="40" as="geometry"/>
                </mxCell>
                <mxCell id="22" value="&amp;lt;&amp;lt;boundary&amp;gt;&amp;gt;&lt;br&gt;&lt;b&gt;PlayPage&lt;/b&gt;" style="swimlane;fontStyle=0;align=center;verticalAlign=top;childLayout=stackLayout;horizontal=1;startSize=40;horizontalStack=0;resizeParent=1;resizeParentMax=0;resizeLast=0;collapsible=0;marginBottom=0;html=1;" parent="4" vertex="1">
                    <mxGeometry x="940" y="165" width="320" height="70" as="geometry"/>
                </mxCell>
                <mxCell id="23" value="+PhotoImage（cardType:str,numberOfCards:int:void&lt;br&gt;+Button（hit:str,stand:str,surrender:str:void" style="text;html=1;strokeColor=none;fillColor=none;align=left;verticalAlign=middle;spacingLeft=4;spacingRight=4;overflow=hidden;rotatable=0;points=[[0,0.5],[1,0.5]];portConstraint=eastwest;" parent="22" vertex="1">
                    <mxGeometry y="40" width="320" height="30" as="geometry"/>
                </mxCell>
                <mxCell id="24" value="&amp;lt;&amp;lt;boundary&amp;gt;&amp;gt;&lt;br&gt;&lt;b&gt;ResultConfirmPage&lt;/b&gt;" style="swimlane;fontStyle=0;align=center;verticalAlign=top;childLayout=stackLayout;horizontal=1;startSize=40;horizontalStack=0;resizeParent=1;resizeParentMax=0;resizeLast=0;collapsible=0;marginBottom=0;html=1;" parent="4" vertex="1">
                    <mxGeometry x="1110" y="282.5" width="150" height="70" as="geometry"/>
                </mxCell>
                <mxCell id="25" value="+Label（result:str:void" style="text;html=1;align=center;verticalAlign=middle;resizable=0;points=[];autosize=1;strokeColor=none;fillColor=none;" parent="24" vertex="1">
                    <mxGeometry y="40" width="150" height="30" as="geometry"/>
                </mxCell>
                <mxCell id="26" value="&amp;lt;&amp;lt;boundary&amp;gt;&amp;gt;&lt;br&gt;&lt;b&gt;ContinuationSelectPage&lt;/b&gt;" style="swimlane;fontStyle=0;align=center;verticalAlign=top;childLayout=stackLayout;horizontal=1;startSize=40;horizontalStack=0;resizeParent=1;resizeParentMax=0;resizeLast=0;collapsible=0;marginBottom=0;html=1;" parent="4" vertex="1">
                    <mxGeometry x="1062" y="410" width="222" height="70" as="geometry"/>
                </mxCell>
                <mxCell id="27" value="+Button(continue:str,gameend;str):void" style="text;html=1;align=center;verticalAlign=middle;resizable=0;points=[];autosize=1;strokeColor=none;fillColor=none;" parent="26" vertex="1">
                    <mxGeometry y="40" width="222" height="30" as="geometry"/>
                </mxCell>
                <mxCell id="8" value="" style="group" parent="1" vertex="1" connectable="0">
                    <mxGeometry x="100" y="2020" width="500" height="160" as="geometry"/>
                </mxCell>
                <mxCell id="9" value="&lt;font style=&quot;font-size: 24px;&quot;&gt;dao&lt;/font&gt;" style="rounded=0;whiteSpace=wrap;html=1;" parent="8" vertex="1">
                    <mxGeometry width="120" height="40" as="geometry"/>
                </mxCell>
                <mxCell id="10" value="" style="rounded=0;whiteSpace=wrap;html=1;" parent="8" vertex="1">
                    <mxGeometry y="40" width="500" height="120" as="geometry"/>
                </mxCell>
                <mxCell id="39" value="&lt;b&gt;UserDAO&lt;br&gt;&lt;/b&gt;" style="swimlane;fontStyle=0;align=center;verticalAlign=top;childLayout=stackLayout;horizontal=1;startSize=40;horizontalStack=0;resizeParent=1;resizeParentMax=0;resizeLast=0;collapsible=0;marginBottom=0;html=1;" parent="8" vertex="1">
                    <mxGeometry x="30" y="65" width="200" height="80" as="geometry"/>
                </mxCell>
                <mxCell id="40" value="+insert（user&lt;span style=&quot;text-align: left;&quot;&gt;,User):void&lt;br&gt;+update(user,User):void&lt;br&gt;&lt;/span&gt;" style="text;html=1;align=center;verticalAlign=middle;resizable=0;points=[];autosize=1;strokeColor=none;fillColor=none;" parent="39" vertex="1">
                    <mxGeometry y="40" width="200" height="40" as="geometry"/>
                </mxCell>
                <mxCell id="11" value="" style="group" parent="1" vertex="1" connectable="0">
                    <mxGeometry x="-1150" y="270" width="2200" height="1280" as="geometry"/>
                </mxCell>
                <mxCell id="12" value="&lt;font style=&quot;font-size: 24px;&quot;&gt;entity&lt;/font&gt;" style="rounded=0;whiteSpace=wrap;html=1;" parent="11" vertex="1">
                    <mxGeometry y="105.36363636363636" width="453.6" height="199.63636363636363" as="geometry"/>
                </mxCell>
                <mxCell id="13" value="" style="rounded=0;whiteSpace=wrap;html=1;" parent="11" vertex="1">
                    <mxGeometry y="305" width="1889.9999999999998" height="915" as="geometry"/>
                </mxCell>
                <mxCell id="49" value="1" style="text;html=1;strokeColor=none;fillColor=none;align=center;verticalAlign=middle;whiteSpace=wrap;rounded=0;" parent="11" vertex="1">
                    <mxGeometry x="1272.3529411764707" y="781" width="74.11764705882352" height="30" as="geometry"/>
                </mxCell>
                <mxCell id="61" value="&lt;p style=&quot;line-height: normal; margin: 0pt 0in; text-indent: 0in; direction: ltr; unicode-bidi: embed; word-break: normal;&quot;&gt;&lt;span&gt;《entity》&lt;/span&gt;&lt;/p&gt;&lt;p style=&quot;line-height: normal; margin: 0pt 0in; text-indent: 0in; direction: ltr; unicode-bidi: embed; word-break: normal;&quot;&gt;&lt;span&gt;AddCard&lt;/span&gt;&lt;/p&gt;&lt;p style=&quot;line-height: normal; margin: 0pt 0in; text-indent: 0in; direction: ltr; unicode-bidi: embed; word-break: normal;&quot;&gt;&lt;span&gt;&lt;br&gt;&lt;/span&gt;&lt;/p&gt;" style="swimlane;fontStyle=0;childLayout=stackLayout;horizontal=1;startSize=26;fillColor=none;horizontalStack=0;resizeParent=1;resizeParentMax=0;resizeLast=0;collapsible=1;marginBottom=0;html=1;" parent="11" vertex="1">
                    <mxGeometry x="617.6470588235294" y="562" width="247.05882352941174" height="80" as="geometry"/>
                </mxCell>
                <mxCell id="62" value="-cardType:str&lt;br&gt;-numberOfCards:int" style="text;strokeColor=none;fillColor=none;align=left;verticalAlign=top;spacingLeft=4;spacingRight=4;overflow=hidden;rotatable=0;points=[[0,0.5],[1,0.5]];portConstraint=eastwest;whiteSpace=wrap;html=1;" parent="61" vertex="1">
                    <mxGeometry y="26" width="247.05882352941174" height="54" as="geometry"/>
                </mxCell>
                <mxCell id="78" value="" style="group" parent="11" vertex="1" connectable="0">
                    <mxGeometry x="990.0035294117646" y="463" width="234.70588235294116" height="108" as="geometry"/>
                </mxCell>
                <mxCell id="79" value="&lt;p style=&quot;line-height: normal; margin: 0pt 0in; text-indent: 0in; direction: ltr; unicode-bidi: embed; word-break: normal;&quot;&gt;&lt;span&gt;《entity》&lt;/span&gt;&lt;/p&gt;&lt;p style=&quot;line-height: normal; margin: 0pt 0in; text-indent: 0in; direction: ltr; unicode-bidi: embed; word-break: normal;&quot;&gt;Deck&lt;/p&gt;" style="swimlane;fontStyle=0;childLayout=stackLayout;horizontal=1;startSize=26;fillColor=none;horizontalStack=0;resizeParent=1;resizeParentMax=0;resizeLast=0;collapsible=1;marginBottom=0;html=1;" parent="78" vertex="1">
                    <mxGeometry width="234.70588235294116" height="78" as="geometry"/>
                </mxCell>
                <mxCell id="80" value="-cardType:str=♢,♤,♡,♧" style="text;strokeColor=none;fillColor=none;align=left;verticalAlign=top;spacingLeft=4;spacingRight=4;overflow=hidden;rotatable=0;points=[[0,0.5],[1,0.5]];portConstraint=eastwest;whiteSpace=wrap;html=1;" parent="79" vertex="1">
                    <mxGeometry y="26" width="234.70588235294116" height="26" as="geometry"/>
                </mxCell>
                <mxCell id="81" value="-numberOfCards:int=52" style="text;strokeColor=none;fillColor=none;align=left;verticalAlign=top;spacingLeft=4;spacingRight=4;overflow=hidden;rotatable=0;points=[[0,0.5],[1,0.5]];portConstraint=eastwest;whiteSpace=wrap;html=1;" parent="79" vertex="1">
                    <mxGeometry y="52" width="234.70588235294116" height="26" as="geometry"/>
                </mxCell>
                <mxCell id="82" value="cardShuffle(numberOfCards:int)" style="fontStyle=1;" parent="78" vertex="1">
                    <mxGeometry y="78" width="234.70588235294116" height="30" as="geometry"/>
                </mxCell>
                <mxCell id="100" value="「ディーラー」クラス" style="shape=note;whiteSpace=wrap;html=1;backgroundOutline=1;darkOpacity=0.05;" parent="11" vertex="1">
                    <mxGeometry x="1714.9976470588235" y="620" width="209.99999999999997" height="59" as="geometry"/>
                </mxCell>
                <mxCell id="161" value="「ユーザ登録画面」クラス" style="shape=note;whiteSpace=wrap;html=1;backgroundOutline=1;darkOpacity=0.05;" parent="11" vertex="1">
                    <mxGeometry x="10.58823529411768" y="-90" width="247.05882352941174" height="59" as="geometry"/>
                </mxCell>
                <mxCell id="162" value="「ログイン画面」クラス" style="shape=note;whiteSpace=wrap;html=1;backgroundOutline=1;darkOpacity=0.05;" parent="11" vertex="1">
                    <mxGeometry x="356.47058823529414" y="-90" width="247.05882352941174" height="59" as="geometry"/>
                </mxCell>
                <mxCell id="165" value="「賭け金入力画面」クラス" style="shape=note;whiteSpace=wrap;html=1;backgroundOutline=1;darkOpacity=0.05;" parent="11" vertex="1">
                    <mxGeometry x="628.2388235294118" y="-90" width="247.05882352941174" height="59" as="geometry"/>
                </mxCell>
                <mxCell id="175" value="「山札」クラス" style="shape=note;whiteSpace=wrap;html=1;backgroundOutline=1;darkOpacity=0.05;" parent="11" vertex="1">
                    <mxGeometry x="1161.1764705882351" y="330" width="247.05882352941174" height="59" as="geometry"/>
                </mxCell>
                <mxCell id="176" value="「追加カード」クラス" style="shape=note;whiteSpace=wrap;html=1;backgroundOutline=1;darkOpacity=0.05;" parent="11" vertex="1">
                    <mxGeometry x="531.1764705882352" y="463" width="247.05882352941174" height="59" as="geometry"/>
                </mxCell>
                <mxCell id="177" value="「ユーザ」クラス" style="shape=note;whiteSpace=wrap;html=1;backgroundOutline=1;darkOpacity=0.05;" parent="11" vertex="1">
                    <mxGeometry x="296.4705882352941" y="600.5" width="247.05882352941174" height="59" as="geometry"/>
                </mxCell>
                <mxCell id="179" value="「結果」クラス" style="shape=note;whiteSpace=wrap;html=1;backgroundOutline=1;darkOpacity=0.05;" parent="11" vertex="1">
                    <mxGeometry x="728.8235294117646" y="1161" width="247.05882352941174" height="59" as="geometry"/>
                </mxCell>
                <mxCell id="180" value="「手札」クラス" style="shape=note;whiteSpace=wrap;html=1;backgroundOutline=1;darkOpacity=0.05;" parent="11" vertex="1">
                    <mxGeometry x="1289.996470588235" y="571" width="209.99999999999997" height="59" as="geometry"/>
                </mxCell>
                <mxCell id="97" value="" style="group" parent="11" vertex="1" connectable="0">
                    <mxGeometry x="1519.4117647058822" y="740" width="222.35294117647058" height="123.5" as="geometry"/>
                </mxCell>
                <mxCell id="98" value="&lt;p style=&quot;line-height: normal; margin: 0pt 0in; text-indent: 0in; direction: ltr; unicode-bidi: embed; word-break: normal;&quot;&gt;&lt;span&gt;《entity》&lt;/span&gt;&lt;/p&gt;&lt;p style=&quot;line-height: normal; margin: 0pt 0in; text-indent: 0in; direction: ltr; unicode-bidi: embed; word-break: normal;&quot;&gt;&lt;span&gt;Dealer&lt;/span&gt;&lt;/p&gt;&lt;span style=&quot;color: rgba(0, 0, 0, 0); font-family: monospace; font-size: 0px; text-align: start;&quot;&gt;%3CmxGraphModel%3E%3Croot%3E%3CmxCell%20id%3D%220%22%2F%3E%3CmxCell%20id%3D%221%22%20parent%3D%220%22%2F%3E%3CmxCell%20id%3D%222%22%20value%3D%22%E5%86%85%E5%AE%B9%E7%A2%BA%E8%AA%8D%22%20style%3D%22rounded%3D0%3BwhiteSpace%3Dwrap%3Bhtml%3D1%3B%22%20vertex%3D%221%22%20parent%3D%221%22%3E%3CmxGeometry%20x%3D%22490%22%20y%3D%221640%22%20width%3D%22120%22%20height%3D%2240%22%20as%3D%22geometry%22%2F%3E%3C%2FmxCell%3E%3C%2Froot%3E%3C%2FmxGraphModel%3E&lt;/span&gt;" style="swimlane;fontStyle=0;childLayout=stackLayout;horizontal=1;startSize=50;fillColor=none;horizontalStack=0;resizeParent=1;resizeParentMax=0;resizeLast=0;collapsible=1;marginBottom=0;html=1;" parent="97" vertex="1">
                    <mxGeometry width="222.35294117647058" height="70" as="geometry"/>
                </mxCell>
                <mxCell id="99" value="+hit():void&#10;+stand():void" style="fontStyle=0;" parent="97" vertex="1">
                    <mxGeometry y="60.97489539748955" width="222.35294117647058" height="62.52510460251047" as="geometry"/>
                </mxCell>
                <mxCell id="182" value="" style="group" parent="11" vertex="1" connectable="0">
                    <mxGeometry x="899.9989171974522" y="700" width="469.4117647058823" height="190" as="geometry"/>
                </mxCell>
                <mxCell id="41" value="&lt;p style=&quot;line-height: normal; margin: 0pt 0in; text-indent: 0in; direction: ltr; unicode-bidi: embed; word-break: normal;&quot;&gt;&lt;span&gt;《entity》&lt;/span&gt;&lt;/p&gt;&lt;p style=&quot;line-height: normal; margin: 0pt 0in; text-indent: 0in; direction: ltr; unicode-bidi: embed; word-break: normal;&quot;&gt;&lt;span&gt;Hand&lt;/span&gt;&lt;/p&gt;" style="swimlane;fontStyle=0;childLayout=stackLayout;horizontal=1;startSize=26;fillColor=none;horizontalStack=0;resizeParent=1;resizeParentMax=0;resizeLast=0;collapsible=1;marginBottom=0;html=1;" parent="182" vertex="1">
                    <mxGeometry width="469.4117647058823" height="126" as="geometry"/>
                </mxCell>
                <mxCell id="42" value="-cardType:str&lt;br&gt;" style="text;strokeColor=none;fillColor=none;align=left;verticalAlign=top;spacingLeft=4;spacingRight=4;overflow=hidden;rotatable=0;points=[[0,0.5],[1,0.5]];portConstraint=eastwest;whiteSpace=wrap;html=1;" parent="41" vertex="1">
                    <mxGeometry y="26" width="469.4117647058823" height="26" as="geometry"/>
                </mxCell>
                <mxCell id="43" value="-pointOfCards:int" style="text;strokeColor=none;fillColor=none;align=left;verticalAlign=top;spacingLeft=4;spacingRight=4;overflow=hidden;rotatable=0;points=[[0,0.5],[1,0.5]];portConstraint=eastwest;whiteSpace=wrap;html=1;" parent="41" vertex="1">
                    <mxGeometry y="52" width="469.4117647058823" height="28" as="geometry"/>
                </mxCell>
                <mxCell id="181" value="-sumPointOfcards:int" style="text;strokeColor=none;fillColor=none;align=left;verticalAlign=top;spacingLeft=4;spacingRight=4;overflow=hidden;rotatable=0;points=[[0,0.5],[1,0.5]];portConstraint=eastwest;whiteSpace=wrap;html=1;" parent="41" vertex="1">
                    <mxGeometry y="80" width="469.4117647058823" height="46" as="geometry"/>
                </mxCell>
                <mxCell id="73" value="+Hand（cardType:str,numberOfCards:int,sumNumberOfcards:int)&#10;+getCardType():str&#10;+getPointOfCards():int&#10;+getSumPointOfCards():int&#10;+comparisonget(SumPointOfCards:int):bool" style="fontStyle=1;" parent="182" vertex="1">
                    <mxGeometry y="118" width="469.4117647058823" height="72" as="geometry"/>
                </mxCell>
                <mxCell id="89" value="" style="group" parent="11" vertex="1" connectable="0">
                    <mxGeometry x="12.038216560509554" y="744" width="361.1464968152866" height="145" as="geometry"/>
                </mxCell>
                <mxCell id="90" value="&lt;p style=&quot;line-height: normal; margin: 0pt 0in; text-indent: 0in; direction: ltr; unicode-bidi: embed; word-break: normal;&quot;&gt;&lt;span&gt;《entity》&lt;/span&gt;&lt;/p&gt;&lt;p style=&quot;line-height: normal; margin: 0pt 0in; text-indent: 0in; direction: ltr; unicode-bidi: embed; word-break: normal;&quot;&gt;&lt;span&gt;bet&lt;/span&gt;&lt;/p&gt;" style="swimlane;fontStyle=0;childLayout=stackLayout;horizontal=1;startSize=26;fillColor=none;horizontalStack=0;resizeParent=1;resizeParentMax=0;resizeLast=0;collapsible=1;marginBottom=0;html=1;" parent="89" vertex="1">
                    <mxGeometry width="361.1464968152866" height="52" as="geometry"/>
                </mxCell>
                <mxCell id="91" value="-bet:int" style="text;strokeColor=none;fillColor=none;align=left;verticalAlign=top;spacingLeft=4;spacingRight=4;overflow=hidden;rotatable=0;points=[[0,0.5],[1,0.5]];portConstraint=eastwest;whiteSpace=wrap;html=1;" parent="90" vertex="1">
                    <mxGeometry y="26" width="361.1464968152866" height="26" as="geometry"/>
                </mxCell>
                <mxCell id="196" value="" style="endArrow=none;dashed=1;html=1;entryX=0.5;entryY=1;entryDx=0;entryDy=0;" parent="90" edge="1">
                    <mxGeometry width="50" height="50" relative="1" as="geometry">
                        <mxPoint x="147.96178343949055" y="-4" as="sourcePoint"/>
                        <mxPoint x="153.84178343949054" y="-44.99999999999977" as="targetPoint"/>
                    </mxGeometry>
                </mxCell>
                <mxCell id="92" value="+set(bet:int=1000)&#10;+set(bet:int)&#10;+checkBetFormat(bet:int):bool&#10;+betResult(bet:int)&#10;+halveTheBet(bet:int)" style="fontStyle=0;" parent="89" vertex="1">
                    <mxGeometry y="50" width="361.1464968152866" height="95" as="geometry"/>
                </mxCell>
                <mxCell id="178" value="「掛け金」クラス" style="shape=note;whiteSpace=wrap;html=1;backgroundOutline=1;darkOpacity=0.05;" parent="11" vertex="1">
                    <mxGeometry x="80" y="640" width="200" height="59" as="geometry"/>
                </mxCell>
                <mxCell id="200" value="" style="endArrow=none;startArrow=sysMLx;endFill=0;startFill=0;html=1;verticalAlign=bottom;labelBackgroundColor=none;strokeWidth=1;startSize=8;exitX=0.445;exitY=0.998;exitDx=0;exitDy=0;exitPerimeter=0;entryX=0.43;entryY=-0.006;entryDx=0;entryDy=0;entryPerimeter=0;" parent="11" source="82" target="41" edge="1">
                    <mxGeometry width="160" relative="1" as="geometry">
                        <mxPoint x="957.0499363057329" y="635.0499999999997" as="sourcePoint"/>
                        <mxPoint x="1087.0589171974516" y="617" as="targetPoint"/>
                    </mxGeometry>
                </mxCell>
                <mxCell id="201" value="" style="endArrow=none;startArrow=sysMLx;endFill=0;startFill=0;html=1;verticalAlign=bottom;labelBackgroundColor=none;strokeWidth=1;startSize=8;exitX=0;exitY=0.75;exitDx=0;exitDy=0;entryX=1;entryY=0.5;entryDx=0;entryDy=0;" parent="11" source="98" target="181" edge="1">
                    <mxGeometry width="160" relative="1" as="geometry">
                        <mxPoint x="1053.267647058824" y="580.94" as="sourcePoint"/>
                        <mxPoint x="1051.8459760209817" y="753.2439999999997" as="targetPoint"/>
                    </mxGeometry>
                </mxCell>
                <mxCell id="202" value="" style="endArrow=none;startArrow=sysMLx;endFill=0;startFill=0;html=1;verticalAlign=bottom;labelBackgroundColor=none;strokeWidth=1;startSize=8;exitX=0.5;exitY=1;exitDx=0;exitDy=0;entryX=0.475;entryY=-0.019;entryDx=0;entryDy=0;entryPerimeter=0;" parent="11" source="73" target="94" edge="1">
                    <mxGeometry width="160" relative="1" as="geometry">
                        <mxPoint x="1529.411764705882" y="802.5" as="sourcePoint"/>
                        <mxPoint x="1319.410681903334" y="857" as="targetPoint"/>
                    </mxGeometry>
                </mxCell>
                <mxCell id="205" value="" style="html=1;verticalAlign=bottom;labelBackgroundColor=none;endArrow=block;endFill=1;exitX=0.84;exitY=1.005;exitDx=0;exitDy=0;exitPerimeter=0;entryX=0.139;entryY=-0.001;entryDx=0;entryDy=0;entryPerimeter=0;" parent="11" source="62" target="41" edge="1">
                    <mxGeometry width="160" relative="1" as="geometry">
                        <mxPoint x="1050" y="730" as="sourcePoint"/>
                        <mxPoint x="1210" y="730" as="targetPoint"/>
                    </mxGeometry>
                </mxCell>
                <mxCell id="208" value="" style="html=1;verticalAlign=bottom;labelBackgroundColor=none;endArrow=block;endFill=1;entryX=1;entryY=0.5;entryDx=0;entryDy=0;" parent="11" target="95" edge="1">
                    <mxGeometry width="160" relative="1" as="geometry">
                        <mxPoint x="1520" y="830" as="sourcePoint"/>
                        <mxPoint x="1591.5147058823532" y="1065.3" as="targetPoint"/>
                    </mxGeometry>
                </mxCell>
                <mxCell id="209" value="" style="html=1;verticalAlign=bottom;labelBackgroundColor=none;endArrow=block;endFill=1;entryX=1;entryY=0.5;entryDx=0;entryDy=0;exitX=-0.004;exitY=-0.145;exitDx=0;exitDy=0;exitPerimeter=0;" parent="11" source="99" target="181" edge="1">
                    <mxGeometry width="160" relative="1" as="geometry">
                        <mxPoint x="1530" y="840" as="sourcePoint"/>
                        <mxPoint x="1282.3529411764707" y="1052" as="targetPoint"/>
                    </mxGeometry>
                </mxCell>
                <mxCell id="212" value="" style="html=1;verticalAlign=bottom;labelBackgroundColor=none;endArrow=block;endFill=1;exitX=0.446;exitY=0.991;exitDx=0;exitDy=0;exitPerimeter=0;entryX=0.43;entryY=-0.004;entryDx=0;entryDy=0;entryPerimeter=0;" parent="11" source="82" target="41" edge="1">
                    <mxGeometry width="160" relative="1" as="geometry">
                        <mxPoint x="1100" y="590" as="sourcePoint"/>
                        <mxPoint x="1100" y="700" as="targetPoint"/>
                    </mxGeometry>
                </mxCell>
                <mxCell id="173" value="「賭け金確定画面」クラス" style="shape=note;whiteSpace=wrap;html=1;backgroundOutline=1;darkOpacity=0.05;" parent="11" vertex="1">
                    <mxGeometry x="920" y="-90" width="200" height="59" as="geometry"/>
                </mxCell>
                <mxCell id="227" value="1" style="text;html=1;strokeColor=none;fillColor=none;align=center;verticalAlign=middle;whiteSpace=wrap;rounded=0;" parent="11" vertex="1">
                    <mxGeometry x="750" y="830" width="60" height="30" as="geometry"/>
                </mxCell>
                <mxCell id="228" value="1" style="text;html=1;strokeColor=none;fillColor=none;align=center;verticalAlign=middle;whiteSpace=wrap;rounded=0;" parent="11" vertex="1">
                    <mxGeometry x="1369.4099999999999" y="751" width="60" height="30" as="geometry"/>
                </mxCell>
                <mxCell id="229" value="1" style="text;html=1;strokeColor=none;fillColor=none;align=center;verticalAlign=middle;whiteSpace=wrap;rounded=0;" parent="11" vertex="1">
                    <mxGeometry x="830" y="781" width="60" height="30" as="geometry"/>
                </mxCell>
                <mxCell id="230" value="1" style="text;html=1;strokeColor=none;fillColor=none;align=center;verticalAlign=middle;whiteSpace=wrap;rounded=0;" parent="11" vertex="1">
                    <mxGeometry x="1459.4099999999999" y="747.5" width="60" height="30" as="geometry"/>
                </mxCell>
                <mxCell id="231" value="1" style="text;html=1;strokeColor=none;fillColor=none;align=center;verticalAlign=middle;whiteSpace=wrap;rounded=0;" parent="11" vertex="1">
                    <mxGeometry x="360" y="780" width="60" height="30" as="geometry"/>
                </mxCell>
                <mxCell id="232" value="1" style="text;html=1;strokeColor=none;fillColor=none;align=center;verticalAlign=middle;whiteSpace=wrap;rounded=0;" parent="11" vertex="1">
                    <mxGeometry x="450" y="766.5" width="60" height="30" as="geometry"/>
                </mxCell>
                <mxCell id="233" value="1" style="text;html=1;strokeColor=none;fillColor=none;align=center;verticalAlign=middle;whiteSpace=wrap;rounded=0;" parent="11" vertex="1">
                    <mxGeometry x="1101.1799999999998" y="571" width="60" height="30" as="geometry"/>
                </mxCell>
                <mxCell id="234" value="1..*" style="text;html=1;strokeColor=none;fillColor=none;align=center;verticalAlign=middle;whiteSpace=wrap;rounded=0;" parent="11" vertex="1">
                    <mxGeometry x="1114.12" y="654.5" width="60" height="30" as="geometry"/>
                </mxCell>
                <mxCell id="235" value="0..*" style="text;html=1;strokeColor=none;fillColor=none;align=center;verticalAlign=middle;whiteSpace=wrap;rounded=0;" parent="11" vertex="1">
                    <mxGeometry x="875.3" y="1030" width="60" height="30" as="geometry"/>
                </mxCell>
                <mxCell id="236" value="0..*" style="text;html=1;strokeColor=none;fillColor=none;align=center;verticalAlign=middle;whiteSpace=wrap;rounded=0;" parent="11" vertex="1">
                    <mxGeometry x="1346.47" y="1060" width="60" height="30" as="geometry"/>
                </mxCell>
                <mxCell id="237" value="0..*" style="text;html=1;strokeColor=none;fillColor=none;align=center;verticalAlign=middle;whiteSpace=wrap;rounded=0;" parent="11" vertex="1">
                    <mxGeometry x="790" y="642" width="60" height="30" as="geometry"/>
                </mxCell>
                <mxCell id="238" value="1" style="text;html=1;strokeColor=none;fillColor=none;align=center;verticalAlign=middle;whiteSpace=wrap;rounded=0;" parent="11" vertex="1">
                    <mxGeometry x="935.3" y="649" width="60" height="30" as="geometry"/>
                </mxCell>
                <mxCell id="239" value="1" style="text;html=1;strokeColor=none;fillColor=none;align=center;verticalAlign=middle;whiteSpace=wrap;rounded=0;" parent="11" vertex="1">
                    <mxGeometry x="760" y="950" width="60" height="30" as="geometry"/>
                </mxCell>
                <mxCell id="240" value="1" style="text;html=1;strokeColor=none;fillColor=none;align=center;verticalAlign=middle;whiteSpace=wrap;rounded=0;" parent="11" vertex="1">
                    <mxGeometry x="1490" y="880" width="60" height="30" as="geometry"/>
                </mxCell>
                <mxCell id="93" value="" style="group" parent="11" vertex="1" connectable="0">
                    <mxGeometry x="958.8247058823529" y="991" width="370.58823529411757" height="125" as="geometry"/>
                </mxCell>
                <mxCell id="184" value="" style="group" parent="93" vertex="1" connectable="0">
                    <mxGeometry width="370.58823529411757" height="111" as="geometry"/>
                </mxCell>
                <mxCell id="94" value="&lt;p style=&quot;line-height: normal; margin: 0pt 0in; text-indent: 0in; direction: ltr; unicode-bidi: embed; word-break: normal;&quot;&gt;&lt;span&gt;《entity》&lt;/span&gt;&lt;/p&gt;&lt;p style=&quot;line-height: normal; margin: 0pt 0in; text-indent: 0in; direction: ltr; unicode-bidi: embed; word-break: normal;&quot;&gt;Result&lt;/p&gt;" style="swimlane;fontStyle=0;childLayout=stackLayout;horizontal=1;startSize=26;fillColor=none;horizontalStack=0;resizeParent=1;resizeParentMax=0;resizeLast=0;collapsible=1;marginBottom=0;html=1;" parent="184" vertex="1">
                    <mxGeometry width="370.58823529411757" height="76" as="geometry"/>
                </mxCell>
                <mxCell id="95" value="&lt;br&gt;-Result():str" style="text;strokeColor=none;fillColor=none;align=left;verticalAlign=top;spacingLeft=4;spacingRight=4;overflow=hidden;rotatable=0;points=[[0,0.5],[1,0.5]];portConstraint=eastwest;whiteSpace=wrap;html=1;" parent="94" vertex="1">
                    <mxGeometry y="26" width="370.58823529411757" height="50" as="geometry"/>
                </mxCell>
                <mxCell id="96" value="+result(+comparisonget(SumPointOfCards:int):bool)" style="fontStyle=0;" parent="184" vertex="1">
                    <mxGeometry y="76" width="370.58823529411757" height="35" as="geometry"/>
                </mxCell>
                <mxCell id="242" value="" style="endArrow=none;dashed=1;html=1;entryX=0.5;entryY=1;entryDx=0;entryDy=0;entryPerimeter=0;exitX=0.668;exitY=-0.027;exitDx=0;exitDy=0;exitPerimeter=0;" parent="11" source="61" target="176" edge="1">
                    <mxGeometry width="50" height="50" relative="1" as="geometry">
                        <mxPoint x="642.4243949044585" y="740" as="sourcePoint"/>
                        <mxPoint x="430" y="669.5" as="targetPoint"/>
                    </mxGeometry>
                </mxCell>
                <mxCell id="244" value="" style="endArrow=none;dashed=1;html=1;entryX=0.75;entryY=0;entryDx=0;entryDy=0;exitX=0.5;exitY=1;exitDx=0;exitDy=0;exitPerimeter=0;" parent="11" source="180" target="41" edge="1">
                    <mxGeometry width="50" height="50" relative="1" as="geometry">
                        <mxPoint x="802.6823529411763" y="579.8399999999997" as="sourcePoint"/>
                        <mxPoint x="674.705882352941" y="542" as="targetPoint"/>
                    </mxGeometry>
                </mxCell>
                <mxCell id="245" value="" style="endArrow=none;dashed=1;html=1;entryX=0.5;entryY=0;entryDx=0;entryDy=0;exitX=-0.018;exitY=0.737;exitDx=0;exitDy=0;exitPerimeter=0;" parent="11" source="100" target="98" edge="1">
                    <mxGeometry width="50" height="50" relative="1" as="geometry">
                        <mxPoint x="1404.9964705882348" y="640" as="sourcePoint"/>
                        <mxPoint x="1262.0577407268638" y="710" as="targetPoint"/>
                    </mxGeometry>
                </mxCell>
                <mxCell id="246" value="" style="endArrow=none;dashed=1;html=1;entryX=0;entryY=0;entryDx=108.52941176470587;entryDy=0;exitX=-0.01;exitY=1.308;exitDx=0;exitDy=0;exitPerimeter=0;entryPerimeter=0;" parent="11" source="95" target="179" edge="1">
                    <mxGeometry width="50" height="50" relative="1" as="geometry">
                        <mxPoint x="840.6276470588228" y="991.0030000000002" as="sourcePoint"/>
                        <mxPoint x="759.9982352941171" y="1067.52" as="targetPoint"/>
                    </mxGeometry>
                </mxCell>
                <mxCell id="14" value="" style="group" parent="1" vertex="1" connectable="0">
                    <mxGeometry x="-1250" y="1540" width="1150" height="700" as="geometry"/>
                </mxCell>
                <mxCell id="15" value="&lt;font style=&quot;font-size: 24px;&quot;&gt;control&lt;/font&gt;" style="rounded=0;whiteSpace=wrap;html=1;" parent="14" vertex="1">
                    <mxGeometry width="276" height="175.00000000000003" as="geometry"/>
                </mxCell>
                <mxCell id="16" value="" style="rounded=0;whiteSpace=wrap;html=1;" parent="14" vertex="1">
                    <mxGeometry y="175.00000000000003" width="1150" height="525" as="geometry"/>
                </mxCell>
                <mxCell id="254" value="&amp;lt;&amp;lt;contorol&amp;gt;&amp;gt;&lt;br&gt;&lt;b&gt;CreateBetcommand&lt;/b&gt;" style="swimlane;fontStyle=0;align=center;verticalAlign=top;childLayout=stackLayout;horizontal=1;startSize=40;horizontalStack=0;resizeParent=1;resizeParentMax=0;resizeLast=0;collapsible=0;marginBottom=0;html=1;" parent="14" vertex="1">
                    <mxGeometry x="568.5178110196957" y="339.99615384615385" width="144.24457741211668" height="70" as="geometry"/>
                </mxCell>
                <mxCell id="255" value="CreateBetCommand()" style="text;html=1;align=center;verticalAlign=middle;resizable=0;points=[];autosize=1;strokeColor=none;fillColor=none;" parent="254" vertex="1">
                    <mxGeometry y="40" width="144.24457741211668" height="30" as="geometry"/>
                </mxCell>
                <mxCell id="256" value="&amp;lt;&amp;lt;contorol&amp;gt;&amp;gt;&lt;br&gt;&lt;b&gt;CreateBetCommand&lt;/b&gt;" style="swimlane;fontStyle=0;align=center;verticalAlign=top;childLayout=stackLayout;horizontal=1;startSize=40;horizontalStack=0;resizeParent=1;resizeParentMax=0;resizeLast=0;collapsible=0;marginBottom=0;html=1;" parent="14" vertex="1">
                    <mxGeometry x="313.086711543256" y="346.1538461538462" width="144.24457741211668" height="70" as="geometry"/>
                </mxCell>
                <mxCell id="257" value="&lt;span style=&quot;text-align: left;&quot;&gt;+CheckUserCommand()&lt;/span&gt;" style="text;html=1;align=center;verticalAlign=middle;resizable=0;points=[];autosize=1;strokeColor=none;fillColor=none;" parent="256" vertex="1">
                    <mxGeometry y="40" width="144.24457741211668" height="30" as="geometry"/>
                </mxCell>
                <mxCell id="282" value="&amp;lt;&amp;lt;contorol&amp;gt;&amp;gt;&lt;br&gt;&lt;b&gt;CreateBetControl&lt;/b&gt;" style="swimlane;fontStyle=0;align=center;verticalAlign=top;childLayout=stackLayout;horizontal=1;startSize=40;horizontalStack=0;resizeParent=1;resizeParentMax=0;resizeLast=0;collapsible=0;marginBottom=0;html=1;" parent="14" vertex="1">
                    <mxGeometry x="313.086711543256" y="489.9992307692308" width="144.24457741211668" height="70" as="geometry"/>
                </mxCell>
                <mxCell id="283" value="&lt;div style=&quot;text-align: left;&quot;&gt;&lt;span style=&quot;background-color: initial;&quot;&gt;-CheckBetconformat&lt;/span&gt;&lt;/div&gt;" style="text;html=1;align=center;verticalAlign=middle;resizable=0;points=[];autosize=1;strokeColor=none;fillColor=none;" parent="282" vertex="1">
                    <mxGeometry y="40" width="144.24457741211668" height="30" as="geometry"/>
                </mxCell>
                <mxCell id="286" value="" style="endArrow=open;startArrow=none;endFill=0;startFill=0;endSize=8;html=1;verticalAlign=bottom;labelBackgroundColor=none;strokeWidth=1;fontSize=24;exitX=0.484;exitY=1.017;exitDx=0;exitDy=0;exitPerimeter=0;entryX=0.5;entryY=0;entryDx=0;entryDy=0;" parent="14" source="257" target="282" edge="1">
                    <mxGeometry width="160" relative="1" as="geometry">
                        <mxPoint x="421.4659685863875" y="338.46153846153845" as="sourcePoint"/>
                        <mxPoint x="517.8010471204188" y="338.46153846153845" as="targetPoint"/>
                    </mxGeometry>
                </mxCell>
                <mxCell id="284" value="&amp;lt;&amp;lt;contorol&amp;gt;&amp;gt;&lt;br&gt;&lt;b&gt;CreateBetcontrol&lt;/b&gt;" style="swimlane;fontStyle=0;align=center;verticalAlign=top;childLayout=stackLayout;horizontal=1;startSize=40;horizontalStack=0;resizeParent=1;resizeParentMax=0;resizeLast=0;collapsible=0;marginBottom=0;html=1;" parent="14" vertex="1">
                    <mxGeometry x="520.8561904761904" y="490" width="239.57142857142856" height="70" as="geometry"/>
                </mxCell>
                <mxCell id="285" value="CreateBetControl(bet:int)" style="text;html=1;align=center;verticalAlign=middle;resizable=0;points=[];autosize=1;strokeColor=none;fillColor=none;" parent="284" vertex="1">
                    <mxGeometry y="40" width="239.57142857142856" height="30" as="geometry"/>
                </mxCell>
                <mxCell id="287" value="" style="endArrow=open;startArrow=none;endFill=0;startFill=0;endSize=8;html=1;verticalAlign=bottom;labelBackgroundColor=none;strokeWidth=1;fontSize=24;exitX=0.588;exitY=1.084;exitDx=0;exitDy=0;exitPerimeter=0;entryX=0.564;entryY=-0.028;entryDx=0;entryDy=0;entryPerimeter=0;" parent="14" source="255" target="284" edge="1">
                    <mxGeometry width="160" relative="1" as="geometry">
                        <mxPoint x="645.9487619047618" y="530.5099999999993" as="sourcePoint"/>
                        <mxPoint x="649.7819047619046" y="570" as="targetPoint"/>
                    </mxGeometry>
                </mxCell>
                <mxCell id="166" value="" style="endArrow=none;dashed=1;html=1;entryX=0.5;entryY=1;entryDx=0;entryDy=0;exitX=0.5;exitY=0;exitDx=0;exitDy=0;exitPerimeter=0;" parent="1" source="161" target="18" edge="1">
                    <mxGeometry width="50" height="50" relative="1" as="geometry">
                        <mxPoint x="-1030" y="120" as="sourcePoint"/>
                        <mxPoint x="-980" y="70" as="targetPoint"/>
                    </mxGeometry>
                </mxCell>
                <mxCell id="167" value="" style="endArrow=none;dashed=1;html=1;entryX=0.447;entryY=1.086;entryDx=0;entryDy=0;entryPerimeter=0;" parent="1" source="162" target="29" edge="1">
                    <mxGeometry width="50" height="50" relative="1" as="geometry">
                        <mxPoint x="-1010" y="210.00000000000023" as="sourcePoint"/>
                        <mxPoint x="-990" y="50.00000000000023" as="targetPoint"/>
                    </mxGeometry>
                </mxCell>
                <mxCell id="174" value="" style="endArrow=none;dashed=1;html=1;entryX=0.52;entryY=0.987;entryDx=0;entryDy=0;entryPerimeter=0;" parent="1" source="173" target="35" edge="1">
                    <mxGeometry width="50" height="50" relative="1" as="geometry">
                        <mxPoint x="-356.4000000000001" y="200.8259999999998" as="sourcePoint"/>
                        <mxPoint x="-360.00000000000045" y="35" as="targetPoint"/>
                    </mxGeometry>
                </mxCell>
                <mxCell id="83" value="" style="group" parent="1" vertex="1" connectable="0">
                    <mxGeometry x="-649.9959872611465" y="1000" width="264.84076433121015" height="254" as="geometry"/>
                </mxCell>
                <mxCell id="84" value="&lt;p style=&quot;line-height: normal; margin: 0pt 0in; text-indent: 0in; direction: ltr; unicode-bidi: embed; word-break: normal;&quot;&gt;&lt;span&gt;《entity》&lt;/span&gt;&lt;/p&gt;&lt;p style=&quot;line-height: normal; margin: 0pt 0in; text-indent: 0in; direction: ltr; unicode-bidi: embed; word-break: normal;&quot;&gt;&lt;span&gt;user&lt;/span&gt;&lt;/p&gt;" style="swimlane;fontStyle=0;childLayout=stackLayout;horizontal=1;startSize=26;fillColor=none;horizontalStack=0;resizeParent=1;resizeParentMax=0;resizeLast=0;collapsible=1;marginBottom=0;html=1;" parent="83" vertex="1">
                    <mxGeometry width="264.84076433121015" height="104" as="geometry"/>
                </mxCell>
                <mxCell id="85" value="-username:str" style="text;strokeColor=none;fillColor=none;align=left;verticalAlign=top;spacingLeft=4;spacingRight=4;overflow=hidden;rotatable=0;points=[[0,0.5],[1,0.5]];portConstraint=eastwest;whiteSpace=wrap;html=1;" parent="84" vertex="1">
                    <mxGeometry y="26" width="264.84076433121015" height="26" as="geometry"/>
                </mxCell>
                <mxCell id="86" value="-money:int" style="text;strokeColor=none;fillColor=none;align=left;verticalAlign=top;spacingLeft=4;spacingRight=4;overflow=hidden;rotatable=0;points=[[0,0.5],[1,0.5]];portConstraint=eastwest;whiteSpace=wrap;html=1;" parent="84" vertex="1">
                    <mxGeometry y="52" width="264.84076433121015" height="26" as="geometry"/>
                </mxCell>
                <mxCell id="87" value="-password:str" style="text;strokeColor=none;fillColor=none;align=left;verticalAlign=top;spacingLeft=4;spacingRight=4;overflow=hidden;rotatable=0;points=[[0,0.5],[1,0.5]];portConstraint=eastwest;whiteSpace=wrap;html=1;" parent="84" vertex="1">
                    <mxGeometry y="78" width="264.84076433121015" height="26" as="geometry"/>
                </mxCell>
                <mxCell id="88" value="+User(username:str,money:int,password:int)&#10;+login():void&#10;+gamestart():void&#10;+hit():void&#10;+stand():void&#10;+surrender():void&#10;+continue(username:str,money:int,password:int)&#10;+gameEnd():void" style="fontStyle=0;" parent="83" vertex="1">
                    <mxGeometry y="104" width="264.84076433121015" height="150" as="geometry"/>
                </mxCell>
                <mxCell id="47" value="" style="endArrow=none;html=1;entryX=0;entryY=0.5;entryDx=0;entryDy=0;exitX=1;exitY=0.5;exitDx=0;exitDy=0;" parent="1" source="90" target="85" edge="1">
                    <mxGeometry width="50" height="50" relative="1" as="geometry">
                        <mxPoint x="-754.7058823529412" y="1201" as="sourcePoint"/>
                        <mxPoint x="-692.9411764705883" y="1151" as="targetPoint"/>
                    </mxGeometry>
                </mxCell>
                <mxCell id="198" value="" style="endArrow=classic;html=1;entryX=-0.001;entryY=0.837;entryDx=0;entryDy=0;entryPerimeter=0;exitX=0.992;exitY=0.314;exitDx=0;exitDy=0;exitPerimeter=0;" parent="1" source="88" target="181" edge="1">
                    <mxGeometry width="50" height="50" relative="1" as="geometry">
                        <mxPoint x="-380" y="1150" as="sourcePoint"/>
                        <mxPoint x="10" y="970" as="targetPoint"/>
                    </mxGeometry>
                </mxCell>
                <mxCell id="199" value="" style="endArrow=none;startArrow=sysMLx;endFill=0;startFill=0;html=1;verticalAlign=bottom;labelBackgroundColor=none;strokeWidth=1;startSize=8;exitX=0.999;exitY=0.307;exitDx=0;exitDy=0;exitPerimeter=0;entryX=0;entryY=0;entryDx=0;entryDy=0;" parent="1" source="88" target="73" edge="1">
                    <mxGeometry width="160" relative="1" as="geometry">
                        <mxPoint x="-100" y="1000" as="sourcePoint"/>
                        <mxPoint x="60" y="1000" as="targetPoint"/>
                    </mxGeometry>
                </mxCell>
                <mxCell id="203" value="" style="endArrow=none;startArrow=sysMLx;endFill=0;startFill=0;html=1;verticalAlign=bottom;labelBackgroundColor=none;strokeWidth=1;startSize=8;exitX=1.002;exitY=0.609;exitDx=0;exitDy=0;entryX=0;entryY=0.5;entryDx=0;entryDy=0;exitPerimeter=0;" parent="1" source="88" target="95" edge="1">
                    <mxGeometry width="160" relative="1" as="geometry">
                        <mxPoint x="-65.29520044960691" y="1214" as="sourcePoint"/>
                        <mxPoint x="-62.20588235294099" y="1269.5559999999996" as="targetPoint"/>
                    </mxGeometry>
                </mxCell>
                <mxCell id="204" value="" style="endArrow=none;startArrow=sysMLx;endFill=0;startFill=0;html=1;verticalAlign=bottom;labelBackgroundColor=none;strokeWidth=1;startSize=8;entryX=1;entryY=0.5;entryDx=0;entryDy=0;" parent="1" target="95" edge="1">
                    <mxGeometry width="160" relative="1" as="geometry">
                        <mxPoint x="370" y="1100" as="sourcePoint"/>
                        <mxPoint x="169.41068190333408" y="1127" as="targetPoint"/>
                    </mxGeometry>
                </mxCell>
                <mxCell id="207" value="" style="html=1;verticalAlign=bottom;labelBackgroundColor=none;endArrow=block;endFill=1;exitX=1;exitY=0.607;exitDx=0;exitDy=0;exitPerimeter=0;entryX=0;entryY=0.5;entryDx=0;entryDy=0;" parent="1" source="88" target="95" edge="1">
                    <mxGeometry width="160" relative="1" as="geometry">
                        <mxPoint x="-100" y="1000" as="sourcePoint"/>
                        <mxPoint x="60" y="1000" as="targetPoint"/>
                    </mxGeometry>
                </mxCell>
                <mxCell id="168" value="" style="endArrow=none;dashed=1;html=1;entryX=0.528;entryY=1.091;entryDx=0;entryDy=0;entryPerimeter=0;exitX=0.468;exitY=0.014;exitDx=0;exitDy=0;exitPerimeter=0;" parent="1" source="165" target="21" edge="1">
                    <mxGeometry width="50" height="50" relative="1" as="geometry">
                        <mxPoint x="-350.9008172230789" y="204.9200000000003" as="sourcePoint"/>
                        <mxPoint x="-351.4285714285718" y="24.999999999999943" as="targetPoint"/>
                    </mxGeometry>
                </mxCell>
                <mxCell id="213" value="「続行確認画面」クラス" style="shape=note;whiteSpace=wrap;html=1;backgroundOutline=1;darkOpacity=0.05;" parent="1" vertex="1">
                    <mxGeometry x="200" y="90" width="200" height="59" as="geometry"/>
                </mxCell>
                <mxCell id="214" value="「結果確認画面」クラス" style="shape=note;whiteSpace=wrap;html=1;backgroundOutline=1;darkOpacity=0.05;" parent="1" vertex="1">
                    <mxGeometry x="180" y="-60" width="200" height="59" as="geometry"/>
                </mxCell>
                <mxCell id="215" value="「プレイ画面」クラス" style="shape=note;whiteSpace=wrap;html=1;backgroundOutline=1;darkOpacity=0.05;" parent="1" vertex="1">
                    <mxGeometry x="170" y="-230" width="200" height="59" as="geometry"/>
                </mxCell>
                <mxCell id="216" value="" style="endArrow=none;dashed=1;html=1;entryX=0;entryY=0.5;entryDx=0;entryDy=0;entryPerimeter=0;" parent="1" source="22" target="215" edge="1">
                    <mxGeometry width="50" height="50" relative="1" as="geometry">
                        <mxPoint x="-359.94380952380925" y="-170" as="sourcePoint"/>
                        <mxPoint x="-310.698976545842" y="-241" as="targetPoint"/>
                    </mxGeometry>
                </mxCell>
                <mxCell id="217" value="" style="endArrow=none;dashed=1;html=1;entryX=0;entryY=0.5;entryDx=0;entryDy=0;entryPerimeter=0;exitX=1;exitY=0.5;exitDx=0;exitDy=0;" parent="1" source="24" target="214" edge="1">
                    <mxGeometry width="50" height="50" relative="1" as="geometry">
                        <mxPoint x="69.2198581560283" y="-155" as="sourcePoint"/>
                        <mxPoint x="180" y="-190.5" as="targetPoint"/>
                    </mxGeometry>
                </mxCell>
                <mxCell id="218" value="" style="endArrow=none;dashed=1;html=1;entryX=0;entryY=0.5;entryDx=0;entryDy=0;entryPerimeter=0;exitX=1;exitY=0.5;exitDx=0;exitDy=0;" parent="1" source="26" target="213" edge="1">
                    <mxGeometry width="50" height="50" relative="1" as="geometry">
                        <mxPoint x="120" y="-2.5" as="sourcePoint"/>
                        <mxPoint x="190" y="-20.499999999999773" as="targetPoint"/>
                    </mxGeometry>
                </mxCell>
                <mxCell id="241" value="" style="endArrow=none;dashed=1;html=1;entryX=0.5;entryY=1;entryDx=0;entryDy=0;entryPerimeter=0;exitX=0.5;exitY=0;exitDx=0;exitDy=0;" parent="1" source="84" target="177" edge="1">
                    <mxGeometry width="50" height="50" relative="1" as="geometry">
                        <mxPoint x="-980" y="1020" as="sourcePoint"/>
                        <mxPoint x="-974.1199999999999" y="979" as="targetPoint"/>
                    </mxGeometry>
                </mxCell>
                <mxCell id="243" value="" style="endArrow=none;dashed=1;html=1;entryX=0.5;entryY=1;entryDx=0;entryDy=0;entryPerimeter=0;" parent="1" target="175" edge="1">
                    <mxGeometry width="50" height="50" relative="1" as="geometry">
                        <mxPoint x="-50" y="740" as="sourcePoint"/>
                        <mxPoint x="-485.294117647059" y="802" as="targetPoint"/>
                    </mxGeometry>
                </mxCell>
                <mxCell id="266" value="" style="group" parent="1" vertex="1" connectable="0">
                    <mxGeometry x="-560" y="2480" width="720" height="280" as="geometry"/>
                </mxCell>
                <mxCell id="264" value="&lt;font style=&quot;font-size: 24px;&quot;&gt;utility&lt;/font&gt;" style="rounded=0;whiteSpace=wrap;html=1;" parent="266" vertex="1">
                    <mxGeometry width="172.79999999999998" height="70" as="geometry"/>
                </mxCell>
                <mxCell id="265" value="" style="rounded=0;whiteSpace=wrap;html=1;" parent="266" vertex="1">
                    <mxGeometry y="70" width="720" height="210" as="geometry"/>
                </mxCell>
                <mxCell id="278" value="&lt;b&gt;RequestParameter&lt;br&gt;&lt;/b&gt;" style="swimlane;fontStyle=0;align=center;verticalAlign=top;childLayout=stackLayout;horizontal=1;startSize=40;horizontalStack=0;resizeParent=1;resizeParentMax=0;resizeLast=0;collapsible=0;marginBottom=0;html=1;" parent="266" vertex="1">
                    <mxGeometry x="30" y="120" width="225" height="110" as="geometry"/>
                </mxCell>
                <mxCell id="279" value="&lt;span style=&quot;text-align: left;&quot;&gt;+RequestParameter()&lt;br&gt;+getParameter(key:str):str&lt;br&gt;+setParameter(key:string,value:string):void&lt;br&gt;&lt;br&gt;&lt;/span&gt;" style="text;html=1;align=center;verticalAlign=middle;resizable=0;points=[];autosize=1;strokeColor=none;fillColor=none;" parent="278" vertex="1">
                    <mxGeometry y="40" width="225" height="70" as="geometry"/>
                </mxCell>
                <mxCell id="268" value="" style="group" parent="1" vertex="1" connectable="0">
                    <mxGeometry x="100" y="1680" width="720" height="280" as="geometry"/>
                </mxCell>
                <mxCell id="269" value="&lt;span style=&quot;font-size: 24px;&quot;&gt;db&lt;/span&gt;" style="rounded=0;whiteSpace=wrap;html=1;" parent="268" vertex="1">
                    <mxGeometry width="172.79999999999998" height="70" as="geometry"/>
                </mxCell>
                <mxCell id="270" value="" style="rounded=0;whiteSpace=wrap;html=1;" parent="268" vertex="1">
                    <mxGeometry y="70" width="720" height="210" as="geometry"/>
                </mxCell>
                <mxCell id="271" value="&lt;b&gt;pickle&lt;br&gt;&lt;/b&gt;" style="swimlane;fontStyle=0;align=center;verticalAlign=top;childLayout=stackLayout;horizontal=1;startSize=40;horizontalStack=0;resizeParent=1;resizeParentMax=0;resizeLast=0;collapsible=0;marginBottom=0;html=1;" parent="268" vertex="1">
                    <mxGeometry x="65.29999999999995" y="125" width="200" height="80" as="geometry"/>
                </mxCell>
                <mxCell id="272" value="+dump（user&lt;span style=&quot;text-align: left;&quot;&gt;,User):void&lt;br&gt;+load(user,User):void&lt;br&gt;&lt;/span&gt;" style="text;html=1;align=center;verticalAlign=middle;resizable=0;points=[];autosize=1;strokeColor=none;fillColor=none;" parent="271" vertex="1">
                    <mxGeometry y="40" width="200" height="40" as="geometry"/>
                </mxCell>
                <mxCell id="273" value="" style="group" parent="1" vertex="1" connectable="0">
                    <mxGeometry x="-1240" y="2330" width="550" height="450" as="geometry"/>
                </mxCell>
                <mxCell id="274" value="&lt;span style=&quot;font-size: 24px;&quot;&gt;UI&lt;/span&gt;" style="rounded=0;whiteSpace=wrap;html=1;" parent="273" vertex="1">
                    <mxGeometry width="132.00000000000003" height="112.5" as="geometry"/>
                </mxCell>
                <mxCell id="275" value="" style="rounded=0;whiteSpace=wrap;html=1;" parent="273" vertex="1">
                    <mxGeometry y="112.5" width="550" height="337.5" as="geometry"/>
                </mxCell>
                <mxCell id="276" value="&lt;b&gt;Tkinter&lt;br&gt;&lt;/b&gt;" style="swimlane;fontStyle=0;align=center;verticalAlign=top;childLayout=stackLayout;horizontal=1;startSize=40;horizontalStack=0;resizeParent=1;resizeParentMax=0;resizeLast=0;collapsible=0;marginBottom=0;html=1;" parent="273" vertex="1">
                    <mxGeometry x="106.43000000000006" y="210" width="260" height="110" as="geometry"/>
                </mxCell>
                <mxCell id="277" value="+Label(:str&lt;span style=&quot;text-align: left;&quot;&gt;)&lt;br&gt;+geometry(:str)&lt;br&gt;+Photoimage(name:str,width:int,height,int)&lt;br&gt;+Button()&lt;br&gt;&lt;/span&gt;" style="text;html=1;align=center;verticalAlign=middle;resizable=0;points=[];autosize=1;strokeColor=none;fillColor=none;" parent="276" vertex="1">
                    <mxGeometry y="40" width="260" height="70" as="geometry"/>
                </mxCell>
            </root>
        </mxGraphModel>
    </diagram>
</mxfile>